<svg xmlns="http://www.w3.org/2000/svg" width="428" height="1440" viewBox="0 0 428 1440">
  <title>Hi‑fi v2 — C3 Providers Rows (Mobile • Tailwind Marketing Style)</title>
  <defs>
    <linearGradient id="bgGradM" x1="0" y1="0" x2="1" y2="1">
      <stop offset="0%" stop-color="#FFFFFF"/>
      <stop offset="100%" stop-color="#F8FAFC"/>
    </linearGradient>
    <linearGradient id="btnm" x1="0" y1="0" x2="0" y2="1">
      <stop offset="0%" stop-color="#38BDF8"/>
      <stop offset="100%" stop-color="#2563EB"/>
    </linearGradient>
    <filter id="shadowm" x="-20%" y="-20%" width="140%" height="140%">
      <feDropShadow dx="0" dy="6" stdDeviation="8" flood-color="#0B1220" flood-opacity="0.06"/>
    </filter>
    <style>
      .bg{fill:url(#bgGradM)}
      .card{fill:#FFFFFF;stroke:#E5E7EB;stroke-width:1;filter:url(#shadowm)}
      .ring{fill:#FFFFFF;stroke:#E5E7EB}
      .muted{fill:#F9FAFB;stroke:#E5E7EB}
      .text{font:14px Inter, -apple-system, BlinkMacSystemFont, "Segoe UI", Roboto, Helvetica, Arial; fill:#0B1220}
      .hint{font:12px Inter; fill:#64748B}
      .title{font:600 16px Inter; fill:#0B1220}
      .btnText{font:600 16px Inter; fill:#FFFFFF}
      .caret{fill:#64748B}
      .chk{fill:#FFFFFF;stroke:#D1D5DB}
      .chkOn{fill:#2563EB}
    </style>
  </defs>
  <rect class="bg" x="0" y="0" width="428" height="1440"/>

  <g transform="translate(16,16)">
    <text class="title" x="0" y="0">TTS 供应商对比</text>
    <text class="hint" x="0" y="18">Tailwind Marketing 风格</text>
  </g>

  <!-- 输入 -->
  <g transform="translate(16,44)">
    <rect class="card" x="0" y="0" width="396" height="152" rx="16"/>
    <text class="title" x="14" y="28">输入</text>
    <rect class="ring" x="14" y="42" width="310" height="64" rx="12"/>
    <text class="hint" x="28" y="80">输入文字…</text>
    <g transform="translate(330,42)">
      <rect x="0" y="0" width="64" height="64" rx="12" fill="#FFFFFF" stroke="#E5E7EB"/>
      <path d="M20 38a12 12 0 1 1 6-22" fill="none" stroke="#2563EB" stroke-width="2.5"/>
      <path d="M26 14h10v10" fill="none" stroke="#2563EB" stroke-width="2.5"/>
    </g>
    <rect class="ring" x="14" y="114" width="376" height="28" rx="10"/>
    <text class="hint" x="26" y="132">选择文字</text>
    <polygon class="caret" points="372,124 384,124 378,132"/>
  </g>

  <!-- 选择 -->
  <g transform="translate(16,214)">
    <rect class="card" x="0" y="0" width="396" height="296" rx="16"/>
    <text class="title" x="14" y="28">选择</text>
    <rect class="ring" x="14" y="40" width="368" height="36" rx="10"/>
    <text class="text" x="28" y="64">模型供应商（多选）</text>
    <polygon class="caret" points="356,52 368,52 362,60"/>
    <rect class="ring" x="14" y="84" width="178" height="36" rx="10"/>
    <text class="text" x="28" y="108">模型</text>
    <polygon class="caret" points="174,96 186,96 180,104"/>
    <rect class="ring" x="204" y="84" width="178" height="36" rx="10"/>
    <text class="text" x="218" y="108">音色</text>
    <polygon class="caret" points="364,96 376,96 370,104"/>
    <text class="hint" x="14" y="138">每行一个供应商</text>
    <!-- rows -->
    <g transform="translate(14,148)">
      <rect class="muted" x="0" y="0" width="368" height="36" rx="10"/>
      <rect class="chk" x="8" y="8" width="20" height="20" rx="4"/>
      <rect class="chkOn" x="12" y="12" width="12" height="12" rx="2"/>
      <text class="text" x="36" y="24">Provider A</text>
      <rect class="ring" x="160" y="6" width="96" height="24" rx="8"/>
      <text class="hint" x="168" y="22">模型</text>
      <polygon class="caret" points="240,16 252,16 246,24"/>
      <rect class="ring" x="260" y="6" width="96" height="24" rx="8"/>
      <text class="hint" x="268" y="22">音色</text>
      <polygon class="caret" points="340,16 352,16 346,24"/>
    </g>
    <g transform="translate(14,188)">
      <rect class="muted" x="0" y="0" width="368" height="36" rx="10"/>
      <rect class="chk" x="8" y="8" width="20" height="20" rx="4"/>
      <text class="text" x="36" y="24">Provider B</text>
      <rect class="ring" x="160" y="6" width="96" height="24" rx="8"/>
      <text class="hint" x="168" y="22">模型</text>
      <polygon class="caret" points="240,16 252,16 246,24"/>
      <rect class="ring" x="260" y="6" width="96" height="24" rx="8"/>
      <text class="hint" x="268" y="22">音色</text>
      <polygon class="caret" points="340,16 352,16 346,24"/>
    </g>
    <g transform="translate(14,228)">
      <rect class="muted" x="0" y="0" width="368" height="36" rx="10"/>
      <rect class="chk" x="8" y="8" width="20" height="20" rx="4"/>
      <text class="text" x="36" y="24">Provider C</text>
      <rect class="ring" x="160" y="6" width="96" height="24" rx="8"/>
      <text class="hint" x="168" y="22">模型</text>
      <polygon class="caret" points="240,16 252,16 246,24"/>
      <rect class="ring" x="260" y="6" width="96" height="24" rx="8"/>
      <text class="hint" x="268" y="22">音色</text>
      <polygon class="caret" points="340,16 352,16 346,24"/>
    </g>
    <g transform="translate(14,268)">
      <rect class="muted" x="0" y="0" width="368" height="36" rx="10"/>
      <rect class="chk" x="8" y="8" width="20" height="20" rx="4"/>
      <text class="text" x="36" y="24">Provider D</text>
      <rect class="ring" x="160" y="6" width="96" height="24" rx="8"/>
      <text class="hint" x="168" y="22">模型</text>
      <polygon class="caret" points="240,16 252,16 246,24"/>
      <rect class="ring" x="260" y="6" width="96" height="24" rx="8"/>
      <text class="hint" x="268" y="22">音色</text>
      <polygon class="caret" points="340,16 352,16 346,24"/>
    </g>
  </g>

  <!-- Start + Columns -->
  <g transform="translate(16,526)">
    <rect class="card" x="0" y="0" width="396" height="96" rx="16"/>
    <g transform="translate(14,20)">
      <rect x="0" y="0" width="196" height="56" rx="14" fill="url(#btnm)"/>
      <text class="btnText" x="28" y="36">开始比较 ▶</text>
    </g>
    <g transform="translate(216,20)">
      <rect class="muted" x="0" y="0" width="166" height="56" rx="14"/>
      <rect fill="#FFFFFF" stroke="#2563EB" x="4" y="4" width="50" height="48" rx="12"/>
      <text class="text" x="23" y="35">1</text>
      <text class="text" x="83" y="35">2</text>
      <text class="text" x="143" y="35">3</text>
    </g>
  </g>

  <!-- 结果 -->
  <g transform="translate(16,636)">
    <text class="title" x="0" y="0">结果</text>
    <g transform="translate(0,10)">
      <rect class="card" x="0" y="0" width="396" height="168" rx="16"/>
      <text class="text" x="14" y="28">Provider A</text>
      <rect class="muted" x="14" y="38" width="368" height="48" rx="12"/>
      <g transform="translate(14,92)">
        <rect class="ring" x="0" y="0" width="88" height="32" rx="10"/>
        <text class="hint" x="22" y="20">播放</text>
        <rect class="ring" x="96" y="0" width="88" height="32" rx="10"/>
        <text class="hint" x="116" y="20">下载</text>
      </g>
    </g>
    <g transform="translate(0,184)">
      <rect class="card" x="0" y="0" width="396" height="168" rx="16"/>
      <text class="text" x="14" y="28">Provider B</text>
      <rect class="muted" x="14" y="38" width="368" height="48" rx="12"/>
      <g transform="translate(14,92)">
        <rect class="ring" x="0" y="0" width="88" height="32" rx="10"/>
        <text class="hint" x="22" y="20">播放</text>
        <rect class="ring" x="96" y="0" width="88" height="32" rx="10"/>
        <text class="hint" x="116" y="20">下载</text>
      </g>
    </g>
    <g transform="translate(0,368)">
      <rect class="card" x="0" y="0" width="396" height="168" rx="16"/>
      <text class="text" x="14" y="28">Provider C</text>
      <rect class="muted" x="14" y="38" width="368" height="48" rx="12"/>
      <g transform="translate(14,92)">
        <rect class="ring" x="0" y="0" width="88" height="32" rx="10"/>
        <text class="hint" x="22" y="20">播放</text>
        <rect class="ring" x="96" y="0" width="88" height="32" rx="10"/>
        <text class="hint" x="116" y="20">下载</text>
      </g>
    </g>
    <g transform="translate(0,552)">
      <rect class="card" x="0" y="0" width="396" height="168" rx="16"/>
      <text class="text" x="14" y="28">Provider D</text>
      <rect class="muted" x="14" y="38" width="368" height="48" rx="12"/>
      <g transform="translate(14,92)">
        <rect class="ring" x="0" y="0" width="88" height="32" rx="10"/>
        <text class="hint" x="22" y="20">播放</text>
        <rect class="ring" x="96" y="0" width="88" height="32" rx="10"/>
        <text class="hint" x="116" y="20">下载</text>
      </g>
    </g>
  </g>

  <!-- 汇总表 -->
  <g transform="translate(16,1270)">
    <rect class="card" x="0" y="0" width="396" height="140" rx="16"/>
    <text class="title" x="14" y="28">参数比较汇总</text>
    <text class="hint" x="14" y="54">移动端建议横向滚动或卡片化</text>
  </g>

</svg>

